<svg width="17" height="22" viewBox="0 0 17 22" fill="none" xmlns="http://www.w3.org/2000/svg">
<path d="M7.63874 6.75034C7.83817 6.56735 7.97832 6.329 8.04125 6.06589C8.10418 5.80271 8.08698 5.52675 7.99185 5.27341L7.99184 5.27338L7.33555 3.52451L7.33554 3.5245C7.21579 3.2053 6.97874 2.9437 6.67267 2.79304C6.36659 2.64238 6.01453 2.614 5.68824 2.71369L5.68821 2.7137C3.69391 3.3226 2.42439 4.96907 2.69834 6.77213L2.72455 6.94466H2.72418C3.09176 9.19547 3.8707 11.36 5.02256 13.33L5.02285 13.3305C6.19487 15.3527 7.72932 17.1422 9.54955 18.6094C10.9726 19.7517 13.0399 19.4834 14.5658 18.0616L14.5658 18.0616C15.0798 17.5832 15.1337 16.7867 14.6866 16.2451L14.6866 16.245L13.4917 14.7962L13.4916 14.7961C13.3196 14.5871 13.0891 14.4342 12.8295 14.357C12.57 14.2798 12.2934 14.2819 12.0351 14.3629L7.63874 6.75034ZM7.63874 6.75034L7.63861 6.75046L5.68647 8.5369L5.68636 8.537C5.57102 8.64277 5.48507 8.7766 5.43689 8.92546C5.38872 9.07432 5.37996 9.23312 5.41149 9.38637L5.41145 9.38638L5.41226 9.3899L5.43036 9.4683L5.43061 9.46936L5.47738 9.66536L5.47737 9.66536L5.47794 9.6676C5.72405 10.6329 6.09906 11.5608 6.59285 12.4262L6.59285 12.4262L6.59366 12.4276C7.13156 13.3472 7.79909 14.1846 8.57573 14.9141L8.5757 14.9141L8.57812 14.9163L8.63847 14.9706L8.63924 14.9713C8.75609 15.0749 8.8978 15.1465 9.05057 15.1792L9.08189 15.0325L9.05057 15.1792C9.20334 15.2118 9.36196 15.2043 9.51097 15.1574L9.51101 15.1574L12.035 14.3629L7.63874 6.75034ZM9.03012 2.89003L9.03008 2.88992C8.74863 2.13991 8.1916 1.52538 7.47253 1.17155C6.75347 0.817708 5.92646 0.751169 5.16001 0.98548L5.16 0.985483C2.57257 1.77668 0.463714 4.10795 0.909625 7.04483L0.909631 7.04487C1.21367 9.04401 1.91439 11.5864 3.45985 14.2409C4.7435 16.4545 6.42381 18.4131 8.41685 20.0189L8.41708 20.0191C10.7367 21.8807 13.8171 21.2332 15.8007 19.3862L15.8007 19.3862C17.0144 18.2557 17.138 16.3778 16.0843 15.0984L16.0843 15.0984L14.8894 13.648L14.8894 13.648C14.4881 13.1613 13.9505 12.8055 13.3456 12.6261C12.7406 12.4468 12.0959 12.4521 11.494 12.6414C11.4939 12.6414 11.4939 12.6414 11.4939 12.6414L9.48704 13.2724C8.981 12.7411 8.53614 12.1547 8.16086 11.5241C7.79856 10.8865 7.51305 10.2085 7.31019 9.50406L8.85973 8.08272C8.85975 8.0827 8.85977 8.08269 8.85978 8.08267C9.32511 7.65622 9.6523 7.10052 9.79933 6.48688C9.94635 5.87326 9.9065 5.22973 9.6849 4.6389C9.68489 4.63887 9.68488 4.63884 9.68487 4.63881L9.03012 2.89003Z" fill="white" stroke="white" stroke-width="0.3"/>
</svg>
