<svg width="30" height="30" viewBox="0 0 30 30" fill="none" xmlns="http://www.w3.org/2000/svg">
<ellipse cx="15" cy="14.9894" rx="15" ry="14.9894" fill="#F9F9F9"/>
<path d="M22 5.99585H8C6.9 5.99585 6 6.89521 6 7.99444V21.9846C6 23.0848 6.9 23.9831 8 23.9831H22C23.1 23.9831 24 23.0848 24 21.9846V7.99444C24 6.89521 23.1 5.99585 22 5.99585ZM14.984 20.5086C16.4529 20.5083 17.8615 19.9251 18.9 18.8871C19.9386 17.8491 20.522 16.4413 20.522 14.9735C20.522 14.6357 20.479 14.31 20.419 13.9902H22V21.2011C22 21.2919 21.9821 21.3818 21.9472 21.4657C21.9123 21.5495 21.8612 21.6257 21.7968 21.6897C21.7325 21.7538 21.656 21.8045 21.572 21.839C21.4879 21.8735 21.3979 21.891 21.307 21.8906H8.693C8.60214 21.891 8.51209 21.8735 8.42803 21.839C8.34397 21.8045 8.26755 21.7538 8.20316 21.6897C8.13877 21.6257 8.08767 21.5495 8.05281 21.4657C8.01795 21.3818 8 21.2919 8 21.2011V13.9902H9.549C9.488 14.31 9.445 14.6357 9.445 14.9735C9.44527 16.4414 10.0289 17.8491 11.0676 18.8871C12.1063 19.9251 13.515 20.5083 14.984 20.5086ZM11.523 14.9735C11.523 14.5193 11.6125 14.0696 11.7865 13.65C11.9604 13.2304 12.2153 12.8491 12.5367 12.5279C12.8581 12.2068 13.2396 11.952 13.6595 11.7782C14.0794 11.6044 14.5295 11.515 14.984 11.515C15.4385 11.515 15.8886 11.6044 16.3085 11.7782C16.7284 11.952 17.1099 12.2068 17.4313 12.5279C17.7527 12.8491 18.0076 13.2304 18.1815 13.65C18.3555 14.0696 18.445 14.5193 18.445 14.9735C18.445 15.8908 18.0804 16.7705 17.4313 17.4191C16.7822 18.0677 15.9019 18.4321 14.984 18.4321C14.0661 18.4321 13.1858 18.0677 12.5367 17.4191C11.8876 16.7705 11.523 15.8908 11.523 14.9735ZM21.307 10.9923H19.692C19.5086 10.9918 19.3329 10.9188 19.2033 10.7892C19.0736 10.6596 19.0005 10.484 19 10.3008V8.68495C19 8.30322 19.31 7.99444 19.691 7.99444H21.306C21.69 7.99444 22 8.30322 22 8.68495V10.2998C22 10.6805 21.69 10.9923 21.307 10.9923Z" fill="#35297A"/>
</svg>
