<svg width="30" height="30" viewBox="0 0 30 30" fill="none" xmlns="http://www.w3.org/2000/svg">
<ellipse cx="15" cy="14.9894" rx="15" ry="14.9894" fill="#F9F9F9"/>
<g filter="url(#filter0_f)">
<path d="M6 23.0611L7.27186 18.4237C6.48984 17.0667 6.07303 15.5253 6.07733 13.9494C6.07733 9.01137 10.0993 4.99658 15.0408 4.99658C17.4385 4.99658 19.6901 5.92838 21.3789 7.62016C23.0718 9.31194 24.0043 11.562 24 13.9537C24 18.8917 19.978 22.9066 15.0365 22.9066H15.0322C13.5326 22.9066 12.0587 22.5287 10.7481 21.8159L6 23.0611ZM10.9716 20.1928L11.2423 20.356C12.3853 21.0344 13.6958 21.3908 15.0322 21.3951H15.0365C19.1401 21.3951 22.4831 18.0587 22.4831 13.9537C22.4831 11.9656 21.7097 10.0978 20.3046 8.68931C18.8995 7.28091 17.026 6.50804 15.0365 6.50804C10.9286 6.50804 7.58555 9.84441 7.58555 13.9494C7.58555 15.3535 7.97656 16.7233 8.72426 17.9084L8.90042 18.1918L8.14849 20.9356L10.9716 20.1928Z" fill="#333333" fill-opacity="0.24"/>
</g>
<path d="M6.40656 22.5824L7.62022 18.1594C6.87184 16.862 6.47816 15.3908 6.47869 13.8933C6.47869 9.18621 10.315 5.35693 15.0211 5.35693C17.3084 5.35693 19.4515 6.24746 21.064 7.85886C22.6766 9.47033 23.5636 11.6161 23.5636 13.8976C23.5636 18.6046 19.7273 22.4339 15.0211 22.4339H15.0169C13.5868 22.4339 12.1821 22.0735 10.9345 21.395L6.40656 22.5824V22.5824Z" fill="white"/>
<path d="M6.0968 22.892L7.35287 18.3122C6.58056 16.9722 6.16887 15.4498 6.17317 13.8935C6.17317 9.01676 10.1452 5.05176 15.0254 5.05176C17.3933 5.05176 19.6169 5.97192 21.2847 7.64274C22.9567 9.31355 23.8776 11.5357 23.8733 13.8977C23.8733 18.7744 19.9013 22.7394 15.0211 22.7394H15.0169C13.5387 22.7388 12.0842 22.3685 10.786 21.6623L6.0968 22.8921V22.892ZM11.0066 20.0593L11.274 20.2205C12.4028 20.8905 13.6971 21.2425 15.0169 21.2467H15.0211C19.0738 21.2467 22.3753 17.9518 22.3753 13.8977C22.3753 11.9343 21.6115 10.0896 20.2238 8.6987C18.8361 7.30779 16.9859 6.54447 15.0211 6.54447C10.9642 6.54447 7.6627 9.83943 7.6627 13.8935C7.6627 15.2802 8.04882 16.6329 8.78725 17.8033L8.96126 18.0832L8.2186 20.7929L11.0066 20.0593Z" fill="#2D2177"/>
<path d="M12.8102 10.1913C12.6447 9.82239 12.4707 9.81387 12.3137 9.80964C12.1864 9.80542 12.0379 9.80542 11.8893 9.80542C11.7408 9.80542 11.5031 9.86054 11.2995 10.081C11.0958 10.3016 10.5271 10.8359 10.5271 11.9258C10.5271 13.0113 11.3207 14.063 11.431 14.2114C11.5413 14.3599 12.963 16.6625 15.2078 17.5488C17.075 18.2867 17.457 18.1382 17.8601 18.1001C18.2675 18.0619 19.1672 17.5658 19.3539 17.0484C19.5363 16.5311 19.5363 16.09 19.4812 15.9967C19.426 15.9034 19.2775 15.8483 19.0568 15.738C18.8361 15.6278 17.7498 15.0935 17.5461 15.0172C17.3424 14.9409 17.1939 14.9069 17.0496 15.1274C16.901 15.3479 16.4767 15.844 16.3494 15.9925C16.2221 16.1409 16.0905 16.1579 15.8698 16.0476C15.6492 15.9374 14.9363 15.7041 14.0918 14.9493C13.434 14.3641 12.9885 13.6389 12.8611 13.4184C12.7338 13.1979 12.8484 13.0791 12.9587 12.9689C13.0563 12.8714 13.1794 12.7102 13.2898 12.583C13.4001 12.4558 13.4383 12.3625 13.5104 12.2141C13.5825 12.0657 13.5486 11.9385 13.4934 11.8282C13.4383 11.7179 13.0054 10.6281 12.8102 10.1913Z" fill="#2D2177"/>
<defs>
<filter id="filter0_f" x="5.43969" y="4.43627" width="19.1206" height="19.1852" filterUnits="userSpaceOnUse" color-interpolation-filters="sRGB">
<feFlood flood-opacity="0" result="BackgroundImageFix"/>
<feBlend mode="normal" in="SourceGraphic" in2="BackgroundImageFix" result="shape"/>
<feGaussianBlur stdDeviation="0.280156" result="effect1_foregroundBlur"/>
</filter>
</defs>
</svg>
